<svg width="16" height="16" viewBox="0 0 16 16" fill="none" xmlns="http://www.w3.org/2000/svg">
<path fill-rule="evenodd" clip-rule="evenodd" d="M5.78177 11.7271C5.97517 11.9117 6.23273 12.014 6.50009 12.0123C6.76744 12.0106 7.02369 11.9052 7.21477 11.7181L12.4868 6.53714C12.6279 6.39992 12.7404 6.23596 12.8175 6.05483C12.8947 5.8737 12.935 5.67903 12.9361 5.48216C12.9372 5.28529 12.8991 5.09017 12.824 4.90817C12.7489 4.72618 12.6384 4.56096 12.4988 4.42214C12.3602 4.28243 12.195 4.172 12.013 4.0974C11.8309 4.0228 11.6357 3.98556 11.439 3.9879C11.2422 3.99023 11.048 4.03208 10.8677 4.11098C10.6875 4.18987 10.525 4.30419 10.3898 4.44714L6.84577 8.12314C6.80152 8.16994 6.74804 8.20705 6.6887 8.23209C6.62936 8.25714 6.56547 8.26959 6.50107 8.26865C6.43667 8.26771 6.37317 8.2534 6.31459 8.22663C6.25601 8.19986 6.20363 8.16122 6.16077 8.11314L5.57377 7.47214C5.44438 7.32673 5.28648 7.20947 5.10987 7.12764C4.93326 7.04582 4.74171 7.00117 4.54713 6.99648C4.35254 6.99179 4.15907 7.02716 3.97872 7.10038C3.79838 7.17361 3.63501 7.28313 3.49877 7.42214C3.35963 7.56045 3.24952 7.72515 3.17491 7.90659C3.10029 8.08803 3.06267 8.28254 3.06426 8.47872C3.06584 8.67489 3.1066 8.86877 3.18413 9.04898C3.26166 9.22919 3.37442 9.3921 3.51577 9.52814L5.78177 11.7271Z" fill="#333333"/>
</svg>
