<svg width="16" height="16" viewBox="0 0 16 16" fill="none" xmlns="http://www.w3.org/2000/svg">
<path fill-rule="evenodd" clip-rule="evenodd" d="M8 5.667C7.356 5.667 6.833 5.145 6.833 4.5C6.833 3.856 7.356 3.334 8 3.334C8.644 3.334 9.167 3.856 9.167 4.5C9.167 5.145 8.644 5.667 8 5.667ZM9 12C9 12.553 8.552 13 8 13C7.448 13 7 12.553 7 12V8C7 7.448 7.448 7 8 7C8.552 7 9 7.448 9 8V12ZM8 1C4.134 1 1 4.134 1 8C1 11.866 4.134 15 8 15C11.866 15 15 11.866 15 8C15 4.134 11.866 1 8 1Z" fill="#333333"/>
</svg>
