<svg width="16" height="16" viewBox="0 0 16 16" fill="none" xmlns="http://www.w3.org/2000/svg">
<path fill-rule="evenodd" clip-rule="evenodd" d="M12.9542 4.45999C13.1438 4.27042 13.1436 3.95109 12.9465 3.754L12.246 3.05352C12.0405 2.848 11.7329 2.85296 11.54 3.04578L8.00007 6.58574L4.46011 3.04578C4.27054 2.8562 3.95121 2.85642 3.75412 3.05352L3.05364 3.754C2.84812 3.95952 2.85308 4.26717 3.0459 4.45999L6.58586 7.99995L3.0459 11.5399C2.85632 11.7295 2.85655 12.0488 3.05364 12.2459L3.75412 12.9464C3.95964 13.1519 4.2673 13.1469 4.46011 12.9541L8.00007 9.41416L11.54 12.9541C11.7296 13.1437 12.0489 13.1435 12.246 12.9464L12.9465 12.2459C13.152 12.0404 13.1471 11.7327 12.9542 11.5399L9.41429 7.99995L12.9542 4.45999Z" fill="#333333"/>
</svg>
