<svg width="18" height="17" viewBox="0 0 18 17" fill="none" xmlns="http://www.w3.org/2000/svg">
<path fill-rule="evenodd" clip-rule="evenodd" d="M8.90912 11.9984C8.08112 11.9734 7.34212 11.6154 6.81612 11.0564C6.81512 11.0564 6.81512 11.0554 6.81512 11.0554C6.28912 10.4964 5.97612 9.73645 6.00112 8.90845C6.02612 8.08045 6.38512 7.34145 6.94412 6.81545C7.50312 6.28845 8.26312 5.97645 9.09112 6.00145C9.91912 6.02645 10.6581 6.38445 11.1841 6.94345H11.1851C11.7111 7.50345 12.0241 8.26245 11.9991 9.09045C11.9731 9.91845 11.6151 10.6584 11.0561 11.1844C10.4971 11.7104 9.73712 12.0234 8.90912 11.9984ZM16.6271 8.15045L14.8611 7.74045C14.7321 7.14145 14.5151 6.57645 14.2221 6.05745L15.2731 4.57945C15.4121 4.38545 15.3931 4.12045 15.2301 3.94645L14.4211 3.08745C14.2581 2.91345 13.9951 2.87945 13.7921 3.00545L12.2531 3.96545C11.7531 3.64145 11.2021 3.39045 10.6121 3.22645L10.3101 1.43845C10.2701 1.20345 10.0701 1.02845 9.83212 1.02145L8.65312 0.985448C8.41412 0.978448 8.20412 1.14045 8.15012 1.37245L7.74112 3.13945C7.14212 3.26745 6.57712 3.48445 6.05712 3.77745L4.57912 2.72645C4.38512 2.58845 4.12012 2.60645 3.94712 2.76945L3.08712 3.57845C2.91412 3.74145 2.88012 4.00545 3.00612 4.20745L3.96612 5.74645C3.64212 6.24645 3.39112 6.79845 3.22612 7.38845L1.43812 7.68945C1.20312 7.72945 1.02912 7.92945 1.02112 8.16745L0.986123 9.34745C0.978123 9.58545 1.14012 9.79545 1.37312 9.84945L3.13912 10.2584C3.26812 10.8574 3.48512 11.4234 3.77812 11.9424L2.72612 13.4204C2.58812 13.6144 2.60612 13.8794 2.77012 14.0524L3.57912 14.9124C3.74212 15.0854 4.00512 15.1204 4.20712 14.9934L5.74612 14.0334C6.24712 14.3584 6.79812 14.6094 7.38812 14.7734L7.69012 16.5614C7.72912 16.7964 7.92912 16.9714 8.16812 16.9784L9.34712 17.0144C9.58612 17.0214 9.79612 16.8594 9.85012 16.6274L10.2591 14.8604C10.8581 14.7324 11.4231 14.5154 11.9421 14.2214L13.4211 15.2734C13.6151 15.4114 13.8791 15.3934 14.0531 15.2294L14.9121 14.4214C15.0861 14.2574 15.1201 13.9944 14.9941 13.7924L14.0341 12.2534C14.3581 11.7524 14.6091 11.2014 14.7731 10.6114L16.5621 10.3104C16.7971 10.2704 16.9711 10.0704 16.9781 9.83245L17.0141 8.65245C17.0211 8.41445 16.8591 8.20445 16.6271 8.15045Z" fill="#333333"/>
</svg>
