<svg width="16" height="16" viewBox="0 0 16 16" fill="none" xmlns="http://www.w3.org/2000/svg">
<path fill-rule="evenodd" clip-rule="evenodd" d="M2.06525 10.9359L8.35174 4.64937C8.54914 4.45197 8.86785 4.45191 9.06442 4.64841L11.3526 6.93581C11.5472 7.13037 11.5488 7.45136 11.3517 7.64842L5.06525 13.9358C4.86785 14.1332 4.4867 14.2926 4.21311 14.2926H2.20389C1.92425 14.2926 1.7085 14.0708 1.7085 13.7972V11.788C1.7085 11.5084 1.86822 11.1329 2.06525 10.9359ZM12.4195 2.00397L13.9981 3.58205C14.3881 3.97196 14.3909 4.61107 13.9982 5.00341L13.0568 5.94381C12.8653 6.13515 12.5489 6.13272 12.3524 5.93621L10.0642 3.64881C9.86959 3.45425 9.86427 3.13704 10.0567 2.94464L10.9975 2.00377C11.3958 1.60551 12.0267 1.61132 12.4195 2.00397Z" fill="#333333"/>
</svg>
