<svg width="16" height="16" viewBox="0 0 16 16" fill="none" xmlns="http://www.w3.org/2000/svg">
<path fill-rule="evenodd" clip-rule="evenodd" d="M4 7.5064C4 6.67444 4.66832 6 5.50474 6H10.4953C11.3263 6 12 6.67646 12 7.5064V13.0026C12 14.1057 11.1133 15 10.0019 15H5.9981C4.89458 15 4 14.1041 4 13.0026V7.5064ZM11 3H5V1.5C5 1.225 5.225 1 5.5 1H10.5C10.775 1 11 1.225 11 1.5V3ZM3 4C3 3.44772 3.45566 3 3.9954 3H12.0046C12.5543 3 13 3.44386 13 4C13 4.55228 12.5443 5 12.0046 5H3.9954C3.44565 5 3 4.55614 3 4ZM6 3H10V2H6V3Z" fill="#333333"/>
</svg>
