<svg width="16" height="16" viewBox="0 0 16 16" fill="none" xmlns="http://www.w3.org/2000/svg">
<path fill-rule="evenodd" clip-rule="evenodd" d="M6.64824 10.2969C4.63324 10.2969 3.00024 8.66388 3.00024 6.64888C3.00024 4.63388 4.63324 2.99988 6.64824 2.99988C8.66324 2.99988 10.2962 4.63388 10.2962 6.64888C10.2962 8.66388 8.66324 10.2969 6.64824 10.2969ZM14.7072 12.6429L11.5992 9.70688C11.5552 9.66288 11.4992 9.64188 11.4502 9.60788C11.9832 8.74588 12.2962 7.73388 12.2962 6.64888C12.2962 3.53388 9.76324 0.999878 6.64824 0.999878C3.53324 0.999878 1.00024 3.53388 1.00024 6.64888C1.00024 9.76288 3.53324 12.2969 6.64824 12.2969C7.64924 12.2969 8.58824 12.0329 9.40424 11.5739C9.44524 11.6409 9.47624 11.7129 9.53524 11.7709L12.6432 14.7069C13.0332 15.0979 13.6662 15.0979 14.0572 14.7069L14.7072 14.0569C15.0972 13.6669 15.0972 13.0339 14.7072 12.6429Z" fill="#333333"/>
</svg>
