<svg width="16" height="16" viewBox="0 0 16 16" fill="none" xmlns="http://www.w3.org/2000/svg">
<path fill-rule="evenodd" clip-rule="evenodd" d="M8.75887 9.5C8.75887 9.77614 8.54319 10 8.25953 10H7.49925C7.22346 10 6.9999 9.76807 6.9999 9.5V9C6.9999 8.34869 9.25 7.05957 9.25 6C9.25 5.652 9.025 4.75 8 4.75C6.979 4.75 6.788 5.734 6.755 6C6.755 6 5.2688 6.022 5.2698 6C5.2688 5.06573 6.004 3.25 8 3.25C9.721 3.25 10.75 4.648 10.75 6C10.75 7.373 8.75887 8.60931 8.75887 9V9.5ZM8 13C7.448 13 7 12.552 7 12C7 11.448 7.448 11 8 11C8.552 11 9 11.448 9 12C9 12.552 8.552 13 8 13ZM1 8C1 11.866 4.134 15 8 15C11.866 15 15 11.866 15 8C15 4.134 11.866 1 8 1C4.134 1 1 4.134 1 8Z" fill="#333333"/>
</svg>
